<?xml version="1.0" encoding="iso-8859-1"?>
<svg xmlns="http://www.w3.org/2000/svg" xmlns:xlink="http://www.w3.org/1999/xlink" version="1.1" id="Capa_1" x="0px" y="0px" viewBox="0 0 504.93 504.93" style="enable-background:new 0 0 504.93 504.93;" xml:space="preserve" width="512" height="512">
<g>
	<path style="fill:hsl(38, 20%, 12%);" d="M236.309,100.346L42.35,294.304l0.001,0.001c-46.468,46.468-46.468,121.808,0,168.274   c46.468,46.468,121.807,46.468,168.275,0.001l193.958-193.959L236.309,100.346z"/>
   <rect style="fill:hsl(38, 20%, 45%);" x="266.934" y="63.164" transform="matrix(0.7071 0.7071 -0.7071 0.7071 203.4929 -222.8088)" width="207.529" height="142.134"/>
   <rect style="fill:hsl(38, 20%, 33%);" x="310.488" y="96.428" transform="matrix(0.7071 0.7071 -0.7071 0.7071 178.6645 -199.3981)" width="39.083" height="39.085"/>
	<g>
      <rect style="fill:hsl(38, 20%, 33%);" x="369.417" y="155.357" transform="matrix(0.7071 0.7071 -0.7071 0.7071 237.6006 -223.8099)" width="39.084" height="39.085"/>
      <g>
         <path style="fill:hsl(38, 20%, 33%);" d="M126.489,457.108c-21.05,0-40.815-8.173-55.654-23.013l-10.606,10.607     c17.672,17.673,41.204,27.405,66.26,27.405c0.002,0-0.001,0,0.001,0c25.055,0,48.589-9.733,66.26-27.404l-10.606-10.607     C167.304,448.937,147.538,457.108,126.489,457.108z"/>
         <rect style="fill:hsl(38, 20%, 33%);" x="215.109" y="376.367" transform="matrix(-0.7071 -0.7071 0.7071 -0.7071 94.1567 847.4802)"  width="15" height="55.742"/>
         <path style="fill:hsl(38, 20%, 20%);" d="M504.929,157.352L347.578,0L247.074,100.504l-10.765-10.765L37.048,289.001     C13.158,312.892,0,344.656,0,378.442c0,33.786,13.157,65.55,37.048,89.44c23.891,23.89,55.655,37.047,89.441,37.047     c0.002,0-0.002,0,0.001,0c33.783,0,65.55-13.157,89.439-37.046l199.262-199.263l-10.766-10.766L504.929,157.352z M257.68,111.11     l89.898-89.897l136.138,136.139l-89.897,89.898L257.68,111.11z M393.978,268.621L205.323,457.276     c-21.058,21.058-49.055,32.653-78.833,32.653c-29.78,0-57.777-11.597-78.835-32.654c-43.469-43.468-43.47-114.198-0.001-157.668     l188.656-188.655l157.51,157.511l0.001-0.001L393.978,268.621z"/>
			<path style="fill:hsl(38, 20%, 20%);" d="M330.03,77.728l-38.244,38.243l38.243,38.242l38.244-38.243L330.03,77.728z M312.999,115.971     l17.031-17.03l17.03,17.029L330.029,133L312.999,115.971z"/>
			<path style="fill:hsl(38, 20%, 20%);" d="M427.201,174.9l-38.243-38.244L350.716,174.9l38.243,38.243L427.201,174.9z M388.959,157.869     l17.03,17.031l-17.03,17.03l-17.03-17.03L388.959,157.869z"/>
		</g>
	</g>
</g>
</svg>

