<?xml version="1.0" encoding="UTF-8"?>
<!DOCTYPE svg PUBLIC "-//W3C//DTD SVG 1.1//EN" "http://www.w3.org/Graphics/SVG/1.1/DTD/svg11.dtd">
<svg xmlns="http://www.w3.org/2000/svg" xml:space="preserve" width="6.82666in" height="6.82666in" style="shape-rendering:geometricPrecision; text-rendering:geometricPrecision; image-rendering:optimizeQuality; fill-rule:evenodd; clip-rule:evenodd"
viewBox="0 0 6.82666 6.82666"
 xmlns:xlink="http://www.w3.org/1999/xlink">
 <defs>
  <style type="text/css">
   <![CDATA[
    .fil0 {fill:none}
    .fil1 {fill:hsl(38, 19%, 18%)}
    .fil2 {fill:hsl(38, 28%, 21%)}
   ]]>
  </style>
 </defs>
 <g id="Layer_x0020_1">
  <metadata id="CorelCorpID_0Corel-Layer"/>
  <g id="_209414208">
   <rect id="_490154712" class="fil0" width="6.82666" height="6.82666"/>
   <rect id="_486583328" class="fil0" x="0.853331" y="0.853331" width="5.12" height="5.12"/>
  </g>
  <path class="fil1" d="M2.12118 2.26329c0,0.683094 0.241843,1.26882 0.721374,1.75276 0.488055,0.483421 1.07369,0.725657 1.76115,0.725657 0.419969,0 0.797807,-0.0891063 1.14143,-0.267626 -0.114539,0.195299 -0.254516,0.382035 -0.428579,0.556051 -0.479618,0.483815 -1.06513,0.725701 -1.75254,0.729854 -0.687504,-0.00419685 -1.2731,-0.246039 -1.75691,-0.729854 -0.483728,-0.483945 -0.725571,-1.06945 -0.725571,-1.75254 0,-0.687504 0.241843,-1.27314 0.725571,-1.76107 0.186776,-0.186909 0.390382,-0.335319 0.611114,-0.449858 -0.199496,0.356425 -0.297035,0.755244 -0.297035,1.19662l0 0z"/>
  <path class="fil2" d="M2.12118 2.26329c0,0.683094 0.241843,1.26882 0.721374,1.75276 0.471028,0.466555 1.03296,0.708429 1.68959,0.72474 -0.166067,0.0442598 -0.341469,0.0669213 -0.526098,0.0680354 -0.548173,-0.00334646 -1.01509,-0.196173 -1.40085,-0.581941 -0.385693,-0.385866 -0.578524,-0.852713 -0.578524,-1.39737 0,-0.222291 0.0317165,-0.43122 0.0951378,-0.627024 -0.000413386,0.0201772 -0.000625984,0.040437 -0.000625984,0.0607913l0 0z"/>
 </g>
</svg>
