<?xml version="1.0" encoding="UTF-8"?>
<!DOCTYPE svg PUBLIC "-//W3C//DTD SVG 1.1//EN" "http://www.w3.org/Graphics/SVG/1.1/DTD/svg11.dtd">
<svg xmlns="http://www.w3.org/2000/svg" xml:space="preserve" width="2048px" height="2048px" style="shape-rendering:geometricPrecision; text-rendering:geometricPrecision; image-rendering:optimizeQuality; fill-rule:evenodd; clip-rule:evenodd"
viewBox="0 0 2048 2048"
 xmlns:xlink="http://www.w3.org/1999/xlink">
 <defs>
  <style type="text/css">
   <![CDATA[
    .fil4 {fill:none}
    .fil2 {fill:hsl(38, 98%, 25%);fill-rule:nonzero}
    .fil0 {fill:hsl(38, 100%, 28%);fill-rule:nonzero}
    .fil3 {fill:hsl(38, 80%, 50%);fill-rule:nonzero}
    .fil1 {fill:hsl(38, 100%, 52%);fill-rule:nonzero}
   ]]>
  </style>
 </defs>
 <g id="Layer_x0020_1">
  <metadata id="CorelCorpID_0Corel-Layer"/>
  <g id="_353063272">
   <path class="fil0" d="M1170 670c23,10 46,22 67,35 21,14 41,30 58,48 17,17 33,37 48,58 14,21 26,43 36,67 10,23 17,47 22,72 5,24 7,49 7,75 0,25 -3,50 -7,75 -5,25 -12,49 -22,72 -10,23 -22,46 -36,67 -14,21 -30,41 -48,58 -17,17 -37,33 -58,48 -21,14 -43,26 -67,35 -23,10 -47,17 -72,22 -24,5 -49,7 -75,7 -25,0 -50,-3 -75,-7 -25,-5 -49,-12 -72,-22 -23,-10 -46,-22 -67,-35 -21,-14 -41,-30 -58,-48 -17,-17 -33,-37 -48,-58 -14,-21 -26,-43 -36,-67 -10,-23 -17,-47 -22,-72 -5,-24 -7,-49 -7,-75 0,-52 10,-101 29,-147 20,-47 48,-89 83,-125 17,-17 37,-33 58,-48 21,-14 43,-26 67,-35 23,-10 47,-17 72,-22 24,-5 49,-7 75,-7 25,0 50,3 75,7 25,5 49,12 72,22z"/>
   <path class="fil1" d="M992 256c0,-18 14,-32 32,-32 18,0 32,14 32,32l0 320c0,18 -14,32 -32,32 -18,0 -32,-14 -32,-32l0 -320z"/>
   <path class="fil1" d="M457 504c-12,-12 -12,-33 0,-45 12,-12 33,-12 45,0l226 226c12,12 12,33 0,45 -12,12 -33,12 -45,0l-226 -226z"/>
   <path class="fil1" d="M1545 459c12,-12 33,-12 45,0 12,12 12,33 0,45l-226 226c-12,12 -33,12 -45,0 -12,-12 -12,-33 0,-45l226 -226z"/>
   <path class="fil1" d="M255 1057c-18,0 -32,-14 -32,-32 0,-18 14,-32 32,-32l320 0c18,0 32,14 32,32 0,18 -14,32 -32,32l-320 0z"/>
   <path class="fil1" d="M992 1475c0,-18 14,-32 32,-32 18,0 32,14 32,32l0 320c0,18 -14,32 -32,32 -18,0 -32,-14 -32,-32l0 -320z"/>
   <path class="fil1" d="M1319 1366c-12,-12 -12,-33 0,-45 12,-12 33,-12 45,0l226 226c12,12 12,33 0,45 -12,12 -33,12 -45,0l-226 -226z"/>
   <path class="fil1" d="M684 1321c12,-12 33,-12 45,0 12,12 12,33 0,45l-226 226c-12,12 -33,12 -45,0 -12,-12 -12,-33 0,-45l226 -226z"/>
   <path class="fil1" d="M1473 1057c-18,0 -32,-14 -32,-32 0,-18 14,-32 32,-32l320 0c18,0 32,14 32,32 0,18 -14,32 -32,32l-320 0z"/>
  </g>
  <g id="_353064280">
   <path class="fil2" d="M1024 1407c-25,0 -50,-3 -75,-7 -25,-5 -49,-12 -72,-22 -23,-10 -46,-22 -67,-35 -21,-14 -41,-30 -58,-48 -17,-17 -33,-37 -48,-58 -14,-21 -26,-43 -36,-67 -10,-23 -17,-47 -22,-72 -5,-24 -7,-49 -7,-75 0,-52 10,-101 29,-147 20,-47 48,-89 83,-125 17,-17 37,-33 58,-48 21,-14 43,-26 67,-35 23,-10 47,-17 72,-22 24,-5 49,-7 75,-7l0 767z"/>
   <path class="fil3" d="M992 256c0,-18 14,-32 32,-32l0 0 0 384 0 0c-18,0 -32,-14 -32,-32l0 -320z"/>
   <path class="fil3" d="M457 504c-12,-12 -12,-33 0,-45 12,-12 33,-12 45,0l226 226c12,12 12,33 0,45 -12,12 -33,12 -45,0l-226 -226z"/>
   <path class="fil3" d="M255 1057c-18,0 -32,-14 -32,-32 0,-18 14,-32 32,-32l320 0c18,0 32,14 32,32 0,18 -14,32 -32,32l-320 0z"/>
   <path class="fil3" d="M992 1475c0,-18 14,-32 32,-32l0 0 0 384 0 0c-18,0 -32,-14 -32,-32l0 -320z"/>
   <path class="fil3" d="M684 1321c12,-12 33,-12 45,0 12,12 12,33 0,45l-226 226c-12,12 -33,12 -45,0 -12,-12 -12,-33 0,-45l226 -226z"/>
  </g>
  <rect class="fil4" width="2048" height="2048"/>
 </g>
</svg>
