<?xml version="1.0" encoding="iso-8859-1"?>
<!-- Generator: Adobe Illustrator 19.0.0, SVG Export Plug-In . SVG Version: 6.00 Build 0)  -->
<svg version="1.1" id="Layer_1" xmlns="http://www.w3.org/2000/svg" xmlns:xlink="http://www.w3.org/1999/xlink" x="0px" y="0px"
	 viewBox="0 0 512 512" style="enable-background:new 0 0 512 512;" xml:space="preserve">
<path style="fill:#36CD90;" d="M401.266,370.93l-13.297,6.221c-2.453,1.148-60.588,27.951-131.979,28.045h-0.355
	c-71.579,0-129.276-26.928-131.687-28.076l-13.214-6.252L255.99,0L401.266,370.93z"/>
<path style="fill:#00A653;" d="M401.266,370.93l-13.297,6.221c-2.453,1.148-60.588,27.951-131.979,28.045V0L401.266,370.93z"/>
<polygon style="fill:#A17852;" points="271.291,480.688 306.088,480.688 306.088,512 205.891,512 205.891,480.688 239.979,480.688 
	239.979,336.33 239.54,336.696 193.46,281.295 217.539,261.276 239.979,288.256 239.979,176.546 271.291,176.546 271.291,266.202 
	292.489,240.704 316.567,260.733 271.291,315.164 "/>
<polygon style="fill:#735538;" points="271.291,480.688 306.088,480.688 306.088,512 255.99,512 255.99,176.546 271.291,176.546 
	271.291,266.202 292.489,240.704 316.567,260.733 271.291,315.164 "/>
<g>
</g>
<g>
</g>
<g>
</g>
<g>
</g>
<g>
</g>
<g>
</g>
<g>
</g>
<g>
</g>
<g>
</g>
<g>
</g>
<g>
</g>
<g>
</g>
<g>
</g>
<g>
</g>
<g>
</g>
</svg>
